<svg width="8619" height="6691" viewBox="0 0 8619 6691" fill="none" xmlns="http://www.w3.org/2000/svg">
<g clip-path="url(#clip0_22_155)">
<rect width="8619" height="6691" fill="white"/>
<path d="M8618.95 826.72V4147.72C8618.95 4147.72 7561.5 3986.5 6881.23 3793.11C5267.28 3334.29 5237.42 3030.33 4079.5 3567.5C2064 4502.5 1719.43 3470.71 1815.94 2406.72C1912.45 1342.72 2402.5 1036.5 3355 826.719C4307.49 616.94 5020.02 478.206 5986.98 826.72C7061.5 1214 8618.95 826.72 8618.95 826.72Z" fill="#F9D36E" stroke="#F9D36E"/>
<g filter="url(#filter0_d_22_155)">
<path d="M4230 2047L4288.89 2149H4171.11L4230 2047Z" fill="#FF0000" fill-opacity="0.5" shape-rendering="crispEdges"/>
</g>
<g filter="url(#filter1_d_22_155)">
<path d="M7954 3278L8012.89 3380H7895.11L7954 3278Z" fill="white"/>
</g>
<g filter="url(#filter2_d_22_155)">
<path d="M8228 4745L8286.89 4847H8169.11L8228 4745Z" fill="#A18A8A"/>
</g>
<path d="M7052 1275C7052 1283.28 7045.28 1290 7037 1290C7028.72 1290 7022 1283.28 7022 1275C7022 1266.72 7028.72 1260 7037 1260C7045.28 1260 7052 1266.72 7052 1275Z" fill="black"/>
<path d="M4978 3636C4978 3644.28 4971.28 3651 4963 3651C4954.72 3651 4948 3644.28 4948 3636C4948 3627.72 4954.72 3621 4963 3621C4971.28 3621 4978 3627.72 4978 3636Z" fill="black"/>
</g>
<defs>
<filter id="filter0_d_22_155" x="4167.11" y="2047" width="125.779" height="110" filterUnits="userSpaceOnUse" color-interpolation-filters="sRGB">
<feFlood flood-opacity="0" result="BackgroundImageFix"/>
<feColorMatrix in="SourceAlpha" type="matrix" values="0 0 0 0 0 0 0 0 0 0 0 0 0 0 0 0 0 0 127 0" result="hardAlpha"/>
<feOffset dy="4"/>
<feGaussianBlur stdDeviation="2"/>
<feComposite in2="hardAlpha" operator="out"/>
<feColorMatrix type="matrix" values="0 0 0 0 0 0 0 0 0 0 0 0 0 0 0 0 0 0 0.25 0"/>
<feBlend mode="normal" in2="BackgroundImageFix" result="effect1_dropShadow_22_155"/>
<feBlend mode="normal" in="SourceGraphic" in2="effect1_dropShadow_22_155" result="shape"/>
</filter>
<filter id="filter1_d_22_155" x="7891.11" y="3278" width="125.779" height="110" filterUnits="userSpaceOnUse" color-interpolation-filters="sRGB">
<feFlood flood-opacity="0" result="BackgroundImageFix"/>
<feColorMatrix in="SourceAlpha" type="matrix" values="0 0 0 0 0 0 0 0 0 0 0 0 0 0 0 0 0 0 127 0" result="hardAlpha"/>
<feOffset dy="4"/>
<feGaussianBlur stdDeviation="2"/>
<feComposite in2="hardAlpha" operator="out"/>
<feColorMatrix type="matrix" values="0 0 0 0 0 0 0 0 0 0 0 0 0 0 0 0 0 0 0.25 0"/>
<feBlend mode="normal" in2="BackgroundImageFix" result="effect1_dropShadow_22_155"/>
<feBlend mode="normal" in="SourceGraphic" in2="effect1_dropShadow_22_155" result="shape"/>
</filter>
<filter id="filter2_d_22_155" x="8165.11" y="4745" width="125.779" height="110" filterUnits="userSpaceOnUse" color-interpolation-filters="sRGB">
<feFlood flood-opacity="0" result="BackgroundImageFix"/>
<feColorMatrix in="SourceAlpha" type="matrix" values="0 0 0 0 0 0 0 0 0 0 0 0 0 0 0 0 0 0 127 0" result="hardAlpha"/>
<feOffset dy="4"/>
<feGaussianBlur stdDeviation="2"/>
<feComposite in2="hardAlpha" operator="out"/>
<feColorMatrix type="matrix" values="0 0 0 0 0 0 0 0 0 0 0 0 0 0 0 0 0 0 0.25 0"/>
<feBlend mode="normal" in2="BackgroundImageFix" result="effect1_dropShadow_22_155"/>
<feBlend mode="normal" in="SourceGraphic" in2="effect1_dropShadow_22_155" result="shape"/>
</filter>
<clipPath id="clip0_22_155">
<rect width="8619" height="6691" fill="white"/>
</clipPath>
</defs>
</svg>
