<svg width="8619" height="6691" viewBox="0 0 8619 6691" fill="none" xmlns="http://www.w3.org/2000/svg">
<g clip-path="url(#clip0_12_2)">
<rect width="8619" height="6691" fill="white"/>
<path d="M3446 848.5C3746 334.5 2996.5 0 2996.5 0H-0.000289917V1669.5C-0.000289917 1669.5 -515.5 2130.65 298 1848C1111.5 1565.35 368 4161 1703.5 2640.5C3039 1120 2902.02 2370.3 3374.01 2130.65C3846 1891 3146 1362.5 3446 848.5Z" fill="#F9D36E" stroke="#F9D36E" stroke-opacity="0.7" stroke-width="3"/>
<circle cx="995.5" cy="2443.5" r="22.5" fill="white"/>
<circle cx="993" cy="2441" r="20" fill="white"/>
<circle cx="1081" cy="2441" r="20" fill="white"/>
<circle cx="1169" cy="2441" r="20" fill="white"/>
<circle cx="1257" cy="2441" r="20" fill="white"/>
<circle cx="1257" cy="2545" r="20" fill="white"/>
<circle cx="1257" cy="2649" r="20" fill="white"/>
<circle cx="1189" cy="2545" r="20" fill="white"/>
<circle cx="1189" cy="2649" r="20" fill="white"/>
<circle cx="1101" cy="2545" r="20" fill="white"/>
<circle cx="1101" cy="2649" r="20" fill="white"/>
<circle cx="993" cy="2545" r="20" fill="white"/>
<circle cx="993" cy="2649" r="20" fill="white"/>
<circle cx="1340" cy="2441" r="20" fill="white"/>
<circle cx="1340" cy="2545" r="20" fill="white"/>
<circle cx="1340" cy="2753" r="20" fill="white"/>
<circle cx="1277" cy="2753" r="20" fill="white"/>
<circle cx="1189" cy="2753" r="20" fill="white"/>
<circle cx="1081" cy="2753" r="20" fill="white"/>
<circle cx="993" cy="2753" r="20" fill="white"/>
<circle cx="1340" cy="2649" r="20" fill="white"/>
<circle cx="1340" cy="2857" r="20" fill="white"/>
<circle cx="1277" cy="2857" r="20" fill="white"/>
<circle cx="1189" cy="2857" r="20" fill="white"/>
<circle cx="1081" cy="2857" r="20" fill="white"/>
<circle cx="993" cy="2857" r="20" fill="white"/>
<circle cx="2594.5" cy="1317.5" r="22.5" fill="white"/>
<circle cx="2592" cy="1315" r="20" fill="white"/>
<circle cx="2680" cy="1315" r="20" fill="white"/>
<circle cx="2768" cy="1315" r="20" fill="white"/>
<circle cx="2856" cy="1315" r="20" fill="white"/>
<circle cx="2856" cy="1419" r="20" fill="white"/>
<circle cx="2856" cy="1523" r="20" fill="white"/>
<circle cx="2788" cy="1419" r="20" fill="white"/>
<circle cx="2788" cy="1523" r="20" fill="white"/>
<circle cx="2700" cy="1419" r="20" fill="white"/>
<circle cx="2700" cy="1523" r="20" fill="white"/>
<path d="M2584 415C2584 423.284 2577.28 430 2569 430C2560.72 430 2554 423.284 2554 415C2554 406.716 2560.72 400 2569 400C2577.28 400 2584 406.716 2584 415Z" fill="black"/>
<circle cx="5686" cy="704" r="15" fill="#311BD8"/>
<circle cx="2592" cy="1419" r="20" fill="white"/>
<circle cx="2592" cy="1523" r="20" fill="white"/>
<circle cx="2939" cy="1315" r="20" fill="white"/>
<circle cx="2939" cy="1419" r="20" fill="white"/>
<circle cx="2939" cy="1627" r="20" fill="white"/>
<circle cx="2876" cy="1627" r="20" fill="white"/>
<circle cx="2788" cy="1627" r="20" fill="white"/>
<circle cx="2680" cy="1627" r="20" fill="white"/>
<circle cx="2592" cy="1627" r="20" fill="white"/>
<circle cx="2939" cy="1523" r="20" fill="white"/>
<circle cx="2939" cy="1731" r="20" fill="white"/>
<circle cx="2876" cy="1731" r="20" fill="white"/>
<circle cx="2788" cy="1731" r="20" fill="white"/>
<circle cx="2680" cy="1731" r="20" fill="white"/>
<circle cx="2592" cy="1731" r="20" fill="white"/>
<circle cx="2326.5" cy="2339.5" r="22.5" fill="white"/>
<circle cx="2324" cy="2337" r="20" fill="white"/>
<circle cx="2412" cy="2337" r="20" fill="white"/>
<circle cx="2500" cy="2337" r="20" fill="white"/>
<circle cx="2588" cy="2337" r="20" fill="white"/>
<circle cx="2588" cy="2441" r="20" fill="white"/>
<circle cx="2588" cy="2545" r="20" fill="white"/>
<circle cx="2520" cy="2441" r="20" fill="white"/>
<circle cx="2520" cy="2545" r="20" fill="white"/>
<circle cx="2432" cy="2441" r="20" fill="white"/>
<circle cx="2432" cy="2545" r="20" fill="white"/>
<circle cx="3835" cy="583" r="15" fill="#FF9514"/>
<circle cx="3518" cy="2227" r="15" fill="#FF9514"/>
<circle cx="1537" cy="1498" r="15" fill="#FF9514"/>
<circle cx="2324" cy="2441" r="20" fill="white"/>
<circle cx="2324" cy="2545" r="20" fill="white"/>
<circle cx="2671" cy="2337" r="20" fill="white"/>
<circle cx="2671" cy="2441" r="20" fill="white"/>
<circle cx="2671" cy="2649" r="20" fill="white"/>
<circle cx="2608" cy="2649" r="20" fill="white"/>
<circle cx="2520" cy="2649" r="20" fill="white"/>
<circle cx="2412" cy="2649" r="20" fill="white"/>
<circle cx="2324" cy="2649" r="20" fill="white"/>
<circle cx="2671" cy="2545" r="20" fill="white"/>
<circle cx="2671" cy="2753" r="20" fill="white"/>
<circle cx="2608" cy="2753" r="20" fill="white"/>
<circle cx="2520" cy="2753" r="20" fill="white"/>
<circle cx="2412" cy="2753" r="20" fill="white"/>
<circle cx="2324" cy="2753" r="20" fill="white"/>
<path d="M293.358 631.562C646.713 765.022 1912.25 244.578 1315.91 -242.438" stroke="white" stroke-opacity="0.59" stroke-width="19"/>
<rect x="1257" y="886" width="200" height="197.802" rx="50" fill="white"/>
<rect opacity="0.5" x="1357" y="963.473" width="200" height="197.802" rx="50" fill="white"/>
<path d="M488 1471L509.651 1508.5H466.349L488 1471Z" fill="#AAAAAA" fill-opacity="0.5"/>
<path d="M4198 2877L4219.65 2914.5H4176.35L4198 2877Z" fill="#AAAAAA" fill-opacity="0.5"/>
<g filter="url(#filter0_d_12_2)">
<path d="M6990 886L7011.65 923.5H6968.35L6990 886Z" fill="#FF0000" fill-opacity="0.5" shape-rendering="crispEdges"/>
</g>
<g filter="url(#filter1_d_12_2)">
<path d="M7745.84 1231.15L7723.96 1193.79L7767.26 1193.52L7745.84 1231.15Z" fill="#FF0000"/>
</g>
<path d="M6223 2685L6244.65 2722.5H6201.35L6223 2685Z" fill="#F9D36E"/>
</g>
<defs>
<filter id="filter0_d_12_2" x="6964.35" y="886" width="51.3008" height="45.5" filterUnits="userSpaceOnUse" color-interpolation-filters="sRGB">
<feFlood flood-opacity="0" result="BackgroundImageFix"/>
<feColorMatrix in="SourceAlpha" type="matrix" values="0 0 0 0 0 0 0 0 0 0 0 0 0 0 0 0 0 0 127 0" result="hardAlpha"/>
<feOffset dy="4"/>
<feGaussianBlur stdDeviation="2"/>
<feComposite in2="hardAlpha" operator="out"/>
<feColorMatrix type="matrix" values="0 0 0 0 0 0 0 0 0 0 0 0 0 0 0 0 0 0 0.25 0"/>
<feBlend mode="normal" in2="BackgroundImageFix" result="effect1_dropShadow_12_2"/>
<feBlend mode="normal" in="SourceGraphic" in2="effect1_dropShadow_12_2" result="shape"/>
</filter>
<filter id="filter1_d_12_2" x="7719.96" y="1193.52" width="51.3008" height="45.6343" filterUnits="userSpaceOnUse" color-interpolation-filters="sRGB">
<feFlood flood-opacity="0" result="BackgroundImageFix"/>
<feColorMatrix in="SourceAlpha" type="matrix" values="0 0 0 0 0 0 0 0 0 0 0 0 0 0 0 0 0 0 127 0" result="hardAlpha"/>
<feOffset dy="4"/>
<feGaussianBlur stdDeviation="2"/>
<feComposite in2="hardAlpha" operator="out"/>
<feColorMatrix type="matrix" values="0 0 0 0 0 0 0 0 0 0 0 0 0 0 0 0 0 0 0.25 0"/>
<feBlend mode="normal" in2="BackgroundImageFix" result="effect1_dropShadow_12_2"/>
<feBlend mode="normal" in="SourceGraphic" in2="effect1_dropShadow_12_2" result="shape"/>
</filter>
<clipPath id="clip0_12_2">
<rect width="8619" height="6691" fill="white"/>
</clipPath>
</defs>
</svg>
