<svg width="2135" height="2470" viewBox="0 0 2135 2470" fill="none" xmlns="http://www.w3.org/2000/svg">
<circle cx="2107.5" cy="27.5" r="27.5" fill="#714BED"/>
<circle cx="1880.5" cy="27.5" r="27.5" fill="#714BED"/>
<circle cx="2002.5" cy="27.5" r="27.5" fill="#714BED"/>
<circle cx="1775.5" cy="27.5" r="27.5" fill="#714BED"/>
<circle cx="2107.5" cy="1287.5" r="27.5" fill="#714BED"/>
<circle cx="1880.5" cy="1287.5" r="27.5" fill="#714BED"/>
<circle cx="2002.5" cy="1287.5" r="27.5" fill="#714BED"/>
<circle cx="1775.5" cy="1287.5" r="27.5" fill="#714BED"/>
<circle cx="2107.5" cy="237.5" r="27.5" fill="#714BED"/>
<circle cx="1880.5" cy="237.5" r="27.5" fill="#714BED"/>
<circle cx="2002.5" cy="237.5" r="27.5" fill="#714BED"/>
<circle cx="1775.5" cy="237.5" r="27.5" fill="#714BED"/>
<circle cx="2107.5" cy="1497.5" r="27.5" fill="#714BED"/>
<circle cx="1880.5" cy="1497.5" r="27.5" fill="#714BED"/>
<circle cx="2002.5" cy="1497.5" r="27.5" fill="#714BED"/>
<circle cx="1775.5" cy="1497.5" r="27.5" fill="#714BED"/>
<circle cx="2107.5" cy="447.5" r="27.5" fill="#714BED"/>
<circle cx="1880.5" cy="447.5" r="27.5" fill="#714BED"/>
<circle cx="2002.5" cy="447.5" r="27.5" fill="#714BED"/>
<circle cx="1775.5" cy="447.5" r="27.5" fill="#714BED"/>
<circle cx="2107.5" cy="1707.5" r="27.5" fill="#714BED"/>
<circle cx="1880.5" cy="1707.5" r="27.5" fill="#714BED"/>
<circle cx="2002.5" cy="1707.5" r="27.5" fill="#714BED"/>
<circle cx="1775.5" cy="1707.5" r="27.5" fill="#714BED"/>
<circle cx="2107.5" cy="657.5" r="27.5" fill="#714BED"/>
<circle cx="1880.5" cy="657.5" r="27.5" fill="#714BED"/>
<circle cx="2002.5" cy="657.5" r="27.5" fill="#714BED"/>
<circle cx="1775.5" cy="657.5" r="27.5" fill="#714BED"/>
<circle cx="2107.5" cy="1917.5" r="27.5" fill="#714BED"/>
<circle cx="1233.5" cy="1917.5" r="27.5" fill="#714BED"/>
<circle cx="1670.5" cy="1917.5" r="27.5" fill="#714BED"/>
<circle cx="796.5" cy="1917.5" r="27.5" fill="#714BED"/>
<circle cx="1880.5" cy="1917.5" r="27.5" fill="#714BED"/>
<circle cx="1006.5" cy="1917.5" r="27.5" fill="#714BED"/>
<circle cx="1443.5" cy="1917.5" r="27.5" fill="#714BED"/>
<circle cx="569.5" cy="1917.5" r="27.5" fill="#714BED"/>
<circle cx="2002.5" cy="1917.5" r="27.5" fill="#714BED"/>
<circle cx="1128.5" cy="1917.5" r="27.5" fill="#714BED"/>
<circle cx="1565.5" cy="1917.5" r="27.5" fill="#714BED"/>
<circle cx="691.5" cy="1917.5" r="27.5" fill="#714BED"/>
<circle cx="1775.5" cy="1917.5" r="27.5" fill="#714BED"/>
<circle cx="901.5" cy="1917.5" r="27.5" fill="#714BED"/>
<circle cx="1338.5" cy="1917.5" r="27.5" fill="#714BED"/>
<circle cx="464.5" cy="1917.5" r="27.5" fill="#714BED"/>
<circle cx="2107.5" cy="867.5" r="27.5" fill="#714BED"/>
<circle cx="1880.5" cy="867.5" r="27.5" fill="#714BED"/>
<circle cx="2002.5" cy="867.5" r="27.5" fill="#714BED"/>
<circle cx="1775.5" cy="867.5" r="27.5" fill="#714BED"/>
<circle cx="2107.5" cy="2127.5" r="27.5" fill="#714BED"/>
<circle cx="1233.5" cy="2127.5" r="27.5" fill="#714BED"/>
<circle cx="1670.5" cy="2127.5" r="27.5" fill="#714BED"/>
<circle cx="796.5" cy="2127.5" r="27.5" fill="#714BED"/>
<circle cx="1880.5" cy="2127.5" r="27.5" fill="#714BED"/>
<circle cx="1006.5" cy="2127.5" r="27.5" fill="#714BED"/>
<circle cx="1443.5" cy="2127.5" r="27.5" fill="#714BED"/>
<circle cx="569.5" cy="2127.5" r="27.5" fill="#714BED"/>
<circle cx="2002.5" cy="2127.5" r="27.5" fill="#714BED"/>
<circle cx="1128.5" cy="2127.5" r="27.5" fill="#714BED"/>
<circle cx="1565.5" cy="2127.5" r="27.5" fill="#714BED"/>
<circle cx="691.5" cy="2127.5" r="27.5" fill="#714BED"/>
<circle cx="1775.5" cy="2127.5" r="27.5" fill="#714BED"/>
<circle cx="901.5" cy="2127.5" r="27.5" fill="#714BED"/>
<circle cx="1338.5" cy="2127.5" r="27.5" fill="#714BED"/>
<circle cx="464.5" cy="2127.5" r="27.5" fill="#714BED"/>
<circle cx="2107.5" cy="1077.5" r="27.5" fill="#714BED"/>
<circle cx="1880.5" cy="1077.5" r="27.5" fill="#714BED"/>
<circle cx="2002.5" cy="1077.5" r="27.5" fill="#714BED"/>
<circle cx="1775.5" cy="1077.5" r="27.5" fill="#714BED"/>
<circle cx="2107.5" cy="2337.5" r="27.5" fill="#714BED"/>
<circle cx="1233.5" cy="2337.5" r="27.5" fill="#714BED"/>
<circle cx="1670.5" cy="2337.5" r="27.5" fill="#714BED"/>
<circle cx="796.5" cy="2337.5" r="27.5" fill="#714BED"/>
<circle cx="1880.5" cy="2337.5" r="27.5" fill="#714BED"/>
<circle cx="1006.5" cy="2337.5" r="27.5" fill="#714BED"/>
<circle cx="1443.5" cy="2337.5" r="27.5" fill="#714BED"/>
<circle cx="569.5" cy="2337.5" r="27.5" fill="#714BED"/>
<circle cx="2002.5" cy="2337.5" r="27.5" fill="#714BED"/>
<circle cx="1128.5" cy="2337.5" r="27.5" fill="#714BED"/>
<circle cx="1565.5" cy="2337.5" r="27.5" fill="#714BED"/>
<circle cx="691.5" cy="2337.5" r="27.5" fill="#714BED"/>
<circle cx="1775.5" cy="2337.5" r="27.5" fill="#714BED"/>
<circle cx="901.5" cy="2337.5" r="27.5" fill="#714BED"/>
<circle cx="1338.5" cy="2337.5" r="27.5" fill="#714BED"/>
<circle cx="464.5" cy="2337.5" r="27.5" fill="#714BED"/>
<circle cx="2107.5" cy="132.5" r="27.5" fill="#714BED"/>
<circle cx="1880.5" cy="132.5" r="27.5" fill="#714BED"/>
<circle cx="2002.5" cy="132.5" r="27.5" fill="#714BED"/>
<circle cx="1775.5" cy="132.5" r="27.5" fill="#714BED"/>
<circle cx="2107.5" cy="1392.5" r="27.5" fill="#714BED"/>
<circle cx="1880.5" cy="1392.5" r="27.5" fill="#714BED"/>
<circle cx="2002.5" cy="1392.5" r="27.5" fill="#714BED"/>
<circle cx="1775.5" cy="1392.5" r="27.5" fill="#714BED"/>
<circle cx="2107.5" cy="342.5" r="27.5" fill="#714BED"/>
<circle cx="1880.5" cy="342.5" r="27.5" fill="#714BED"/>
<circle cx="2002.5" cy="342.5" r="27.5" fill="#714BED"/>
<circle cx="1775.5" cy="342.5" r="27.5" fill="#714BED"/>
<circle cx="2107.5" cy="1602.5" r="27.5" fill="#714BED"/>
<circle cx="1880.5" cy="1602.5" r="27.5" fill="#714BED"/>
<circle cx="2002.5" cy="1602.5" r="27.5" fill="#714BED"/>
<circle cx="1775.5" cy="1602.5" r="27.5" fill="#714BED"/>
<circle cx="2107.5" cy="552.5" r="27.5" fill="#714BED"/>
<circle cx="1880.5" cy="552.5" r="27.5" fill="#714BED"/>
<circle cx="2002.5" cy="552.5" r="27.5" fill="#714BED"/>
<circle cx="1775.5" cy="552.5" r="27.5" fill="#714BED"/>
<circle cx="2107.5" cy="1812.5" r="27.5" fill="#714BED"/>
<circle cx="1233.5" cy="1812.5" r="27.5" fill="#714BED"/>
<circle cx="1670.5" cy="1812.5" r="27.5" fill="#714BED"/>
<circle cx="796.5" cy="1812.5" r="27.5" fill="#714BED"/>
<circle cx="1880.5" cy="1812.5" r="27.5" fill="#714BED"/>
<circle cx="1006.5" cy="1812.5" r="27.5" fill="#714BED"/>
<circle cx="1443.5" cy="1812.5" r="27.5" fill="#714BED"/>
<circle cx="569.5" cy="1812.5" r="27.5" fill="#714BED"/>
<circle cx="2002.5" cy="1812.5" r="27.5" fill="#714BED"/>
<circle cx="1128.5" cy="1812.5" r="27.5" fill="#714BED"/>
<circle cx="1565.5" cy="1812.5" r="27.5" fill="#714BED"/>
<circle cx="691.5" cy="1812.5" r="27.5" fill="#714BED"/>
<circle cx="1775.5" cy="1812.5" r="27.5" fill="#714BED"/>
<circle cx="901.5" cy="1812.5" r="27.5" fill="#714BED"/>
<circle cx="1338.5" cy="1812.5" r="27.5" fill="#714BED"/>
<path d="M492 1812.5C492 1827.69 479.688 1840 464.5 1840C449.312 1840 437 1827.69 437 1812.5C437 1797.31 449.312 1785 464.5 1785C479.688 1785 492 1797.31 492 1812.5Z" fill="#714BED"/>
<circle cx="2107.5" cy="762.5" r="27.5" fill="#714BED"/>
<circle cx="1880.5" cy="762.5" r="27.5" fill="#714BED"/>
<circle cx="2002.5" cy="762.5" r="27.5" fill="#714BED"/>
<circle cx="1775.5" cy="762.5" r="27.5" fill="#714BED"/>
<circle cx="2107.5" cy="2022.5" r="27.5" fill="#714BED"/>
<circle cx="1233.5" cy="2022.5" r="27.5" fill="#714BED"/>
<circle cx="1670.5" cy="2022.5" r="27.5" fill="#714BED"/>
<circle cx="796.5" cy="2022.5" r="27.5" fill="#714BED"/>
<circle cx="1880.5" cy="2022.5" r="27.5" fill="#714BED"/>
<circle cx="1006.5" cy="2022.5" r="27.5" fill="#714BED"/>
<circle cx="1443.5" cy="2022.5" r="27.5" fill="#714BED"/>
<circle cx="569.5" cy="2022.5" r="27.5" fill="#714BED"/>
<circle cx="2002.5" cy="2022.5" r="27.5" fill="#714BED"/>
<circle cx="1128.5" cy="2022.5" r="27.5" fill="#714BED"/>
<circle cx="1565.5" cy="2022.5" r="27.5" fill="#714BED"/>
<circle cx="691.5" cy="2022.5" r="27.5" fill="#714BED"/>
<circle cx="1775.5" cy="2022.5" r="27.5" fill="#714BED"/>
<circle cx="901.5" cy="2022.5" r="27.5" fill="#714BED"/>
<circle cx="1338.5" cy="2022.5" r="27.5" fill="#714BED"/>
<circle cx="464.5" cy="2022.5" r="27.5" fill="#714BED"/>
<circle cx="2107.5" cy="972.5" r="27.5" fill="#714BED"/>
<circle cx="1880.5" cy="972.5" r="27.5" fill="#714BED"/>
<circle cx="2002.5" cy="972.5" r="27.5" fill="#714BED"/>
<circle cx="1775.5" cy="972.5" r="27.5" fill="#714BED"/>
<circle cx="2107.5" cy="2232.5" r="27.5" fill="#714BED"/>
<circle cx="1233.5" cy="2232.5" r="27.5" fill="#714BED"/>
<circle cx="1670.5" cy="2232.5" r="27.5" fill="#714BED"/>
<circle cx="796.5" cy="2232.5" r="27.5" fill="#714BED"/>
<circle cx="1880.5" cy="2232.5" r="27.5" fill="#714BED"/>
<circle cx="1006.5" cy="2232.5" r="27.5" fill="#714BED"/>
<circle cx="1443.5" cy="2232.5" r="27.5" fill="#714BED"/>
<circle cx="569.5" cy="2232.5" r="27.5" fill="#714BED"/>
<circle cx="2002.5" cy="2232.5" r="27.5" fill="#714BED"/>
<circle cx="1128.5" cy="2232.5" r="27.5" fill="#714BED"/>
<circle cx="1565.5" cy="2232.5" r="27.5" fill="#714BED"/>
<circle cx="691.5" cy="2232.5" r="27.5" fill="#714BED"/>
<circle cx="1775.5" cy="2232.5" r="27.5" fill="#714BED"/>
<circle cx="901.5" cy="2232.5" r="27.5" fill="#714BED"/>
<circle cx="1338.5" cy="2232.5" r="27.5" fill="#714BED"/>
<circle cx="464.5" cy="2232.5" r="27.5" fill="#714BED"/>
<circle cx="2107.5" cy="1182.5" r="27.5" fill="#714BED"/>
<circle cx="1880.5" cy="1182.5" r="27.5" fill="#714BED"/>
<circle cx="2002.5" cy="1182.5" r="27.5" fill="#714BED"/>
<circle cx="1775.5" cy="1182.5" r="27.5" fill="#714BED"/>
<circle cx="2107.5" cy="2442.5" r="27.5" fill="#714BED"/>
<circle cx="1233.5" cy="2442.5" r="27.5" fill="#714BED"/>
<circle cx="1670.5" cy="2442.5" r="27.5" fill="#714BED"/>
<circle cx="796.5" cy="2442.5" r="27.5" fill="#714BED"/>
<circle cx="1880.5" cy="2442.5" r="27.5" fill="#714BED"/>
<circle cx="1006.5" cy="2442.5" r="27.5" fill="#714BED"/>
<circle cx="1443.5" cy="2442.5" r="27.5" fill="#714BED"/>
<circle cx="569.5" cy="2442.5" r="27.5" fill="#714BED"/>
<circle cx="2002.5" cy="2442.5" r="27.5" fill="#714BED"/>
<circle cx="1128.5" cy="2442.5" r="27.5" fill="#714BED"/>
<circle cx="1565.5" cy="2442.5" r="27.5" fill="#714BED"/>
<circle cx="691.5" cy="2442.5" r="27.5" fill="#714BED"/>
<circle cx="1775.5" cy="2442.5" r="27.5" fill="#714BED"/>
<circle cx="901.5" cy="2442.5" r="27.5" fill="#714BED"/>
<circle cx="1338.5" cy="2442.5" r="27.5" fill="#714BED"/>
<circle cx="464.5" cy="2442.5" r="27.5" fill="#714BED"/>
<circle cx="1670.5" cy="27.5" r="27.5" fill="#714BED"/>
<circle cx="1443.5" cy="27.5" r="27.5" fill="#714BED"/>
<circle cx="1565.5" cy="27.5" r="27.5" fill="#714BED"/>
<circle cx="1338.5" cy="27.5" r="27.5" fill="#714BED"/>
<circle cx="1670.5" cy="1287.5" r="27.5" fill="#714BED"/>
<circle cx="1443.5" cy="1287.5" r="27.5" fill="#714BED"/>
<circle cx="1565.5" cy="1287.5" r="27.5" fill="#714BED"/>
<circle cx="1338.5" cy="1287.5" r="27.5" fill="#714BED"/>
<circle cx="1670.5" cy="237.5" r="27.5" fill="#714BED"/>
<circle cx="1443.5" cy="237.5" r="27.5" fill="#714BED"/>
<circle cx="1565.5" cy="237.5" r="27.5" fill="#714BED"/>
<circle cx="1338.5" cy="237.5" r="27.5" fill="#714BED"/>
<circle cx="1670.5" cy="1497.5" r="27.5" fill="#714BED"/>
<circle cx="1443.5" cy="1497.5" r="27.5" fill="#714BED"/>
<circle cx="1565.5" cy="1497.5" r="27.5" fill="#714BED"/>
<circle cx="1338.5" cy="1497.5" r="27.5" fill="#714BED"/>
<circle cx="1670.5" cy="447.5" r="27.5" fill="#714BED"/>
<circle cx="1443.5" cy="447.5" r="27.5" fill="#714BED"/>
<circle cx="1565.5" cy="447.5" r="27.5" fill="#714BED"/>
<circle cx="1338.5" cy="447.5" r="27.5" fill="#714BED"/>
<circle cx="1670.5" cy="1707.5" r="27.5" fill="#714BED"/>
<circle cx="1443.5" cy="1707.5" r="27.5" fill="#714BED"/>
<circle cx="1565.5" cy="1707.5" r="27.5" fill="#714BED"/>
<circle cx="1338.5" cy="1707.5" r="27.5" fill="#714BED"/>
<circle cx="1670.5" cy="657.5" r="27.5" fill="#714BED"/>
<circle cx="1443.5" cy="657.5" r="27.5" fill="#714BED"/>
<circle cx="1565.5" cy="657.5" r="27.5" fill="#714BED"/>
<circle cx="1338.5" cy="657.5" r="27.5" fill="#714BED"/>
<circle cx="1670.5" cy="1917.5" r="27.5" fill="#714BED"/>
<circle cx="796.5" cy="1917.5" r="27.5" fill="#714BED"/>
<circle cx="1233.5" cy="1917.5" r="27.5" fill="#714BED"/>
<circle cx="359.5" cy="1917.5" r="27.5" fill="#714BED"/>
<circle cx="1443.5" cy="1917.5" r="27.5" fill="#714BED"/>
<circle cx="569.5" cy="1917.5" r="27.5" fill="#714BED"/>
<circle cx="1006.5" cy="1917.5" r="27.5" fill="#714BED"/>
<circle cx="132.5" cy="1917.5" r="27.5" fill="#714BED"/>
<circle cx="1565.5" cy="1917.5" r="27.5" fill="#714BED"/>
<circle cx="691.5" cy="1917.5" r="27.5" fill="#714BED"/>
<circle cx="1128.5" cy="1917.5" r="27.5" fill="#714BED"/>
<circle cx="254.5" cy="1917.5" r="27.5" fill="#714BED"/>
<circle cx="1338.5" cy="1917.5" r="27.5" fill="#714BED"/>
<circle cx="464.5" cy="1917.5" r="27.5" fill="#714BED"/>
<circle cx="901.5" cy="1917.5" r="27.5" fill="#714BED"/>
<circle cx="27.5" cy="1917.5" r="27.5" fill="#714BED"/>
<circle cx="1670.5" cy="867.5" r="27.5" fill="#714BED"/>
<circle cx="1443.5" cy="867.5" r="27.5" fill="#714BED"/>
<circle cx="1565.5" cy="867.5" r="27.5" fill="#714BED"/>
<circle cx="1338.5" cy="867.5" r="27.5" fill="#714BED"/>
<circle cx="1670.5" cy="2127.5" r="27.5" fill="#714BED"/>
<circle cx="796.5" cy="2127.5" r="27.5" fill="#714BED"/>
<circle cx="1233.5" cy="2127.5" r="27.5" fill="#714BED"/>
<circle cx="359.5" cy="2127.5" r="27.5" fill="#714BED"/>
<circle cx="1443.5" cy="2127.5" r="27.5" fill="#714BED"/>
<circle cx="569.5" cy="2127.5" r="27.5" fill="#714BED"/>
<circle cx="1006.5" cy="2127.5" r="27.5" fill="#714BED"/>
<circle cx="132.5" cy="2127.5" r="27.5" fill="#714BED"/>
<circle cx="1565.5" cy="2127.5" r="27.5" fill="#714BED"/>
<circle cx="691.5" cy="2127.5" r="27.5" fill="#714BED"/>
<circle cx="1128.5" cy="2127.5" r="27.5" fill="#714BED"/>
<circle cx="254.5" cy="2127.5" r="27.5" fill="#714BED"/>
<circle cx="1338.5" cy="2127.5" r="27.5" fill="#714BED"/>
<circle cx="464.5" cy="2127.5" r="27.5" fill="#714BED"/>
<circle cx="901.5" cy="2127.5" r="27.5" fill="#714BED"/>
<circle cx="27.5" cy="2127.5" r="27.5" fill="#714BED"/>
<circle cx="1670.5" cy="1077.5" r="27.5" fill="#714BED"/>
<circle cx="1443.5" cy="1077.5" r="27.5" fill="#714BED"/>
<circle cx="1565.5" cy="1077.5" r="27.5" fill="#714BED"/>
<circle cx="1338.5" cy="1077.5" r="27.5" fill="#714BED"/>
<circle cx="1670.5" cy="2337.5" r="27.5" fill="#714BED"/>
<circle cx="796.5" cy="2337.5" r="27.5" fill="#714BED"/>
<circle cx="1233.5" cy="2337.5" r="27.5" fill="#714BED"/>
<circle cx="359.5" cy="2337.5" r="27.5" fill="#714BED"/>
<circle cx="1443.5" cy="2337.5" r="27.5" fill="#714BED"/>
<circle cx="569.5" cy="2337.5" r="27.5" fill="#714BED"/>
<circle cx="1006.5" cy="2337.5" r="27.5" fill="#714BED"/>
<circle cx="132.5" cy="2337.5" r="27.5" fill="#714BED"/>
<circle cx="1565.5" cy="2337.5" r="27.5" fill="#714BED"/>
<circle cx="691.5" cy="2337.5" r="27.5" fill="#714BED"/>
<circle cx="1128.5" cy="2337.5" r="27.5" fill="#714BED"/>
<circle cx="254.5" cy="2337.5" r="27.5" fill="#714BED"/>
<circle cx="1338.5" cy="2337.5" r="27.5" fill="#714BED"/>
<circle cx="464.5" cy="2337.5" r="27.5" fill="#714BED"/>
<circle cx="901.5" cy="2337.5" r="27.5" fill="#714BED"/>
<circle cx="27.5" cy="2337.5" r="27.5" fill="#714BED"/>
<circle cx="1670.5" cy="132.5" r="27.5" fill="#714BED"/>
<circle cx="1443.5" cy="132.5" r="27.5" fill="#714BED"/>
<circle cx="1565.5" cy="132.5" r="27.5" fill="#714BED"/>
<circle cx="1338.5" cy="132.5" r="27.5" fill="#714BED"/>
<circle cx="1670.5" cy="1392.5" r="27.5" fill="#714BED"/>
<circle cx="1443.5" cy="1392.5" r="27.5" fill="#714BED"/>
<circle cx="1565.5" cy="1392.5" r="27.5" fill="#714BED"/>
<circle cx="1338.5" cy="1392.5" r="27.5" fill="#714BED"/>
<circle cx="1670.5" cy="342.5" r="27.5" fill="#714BED"/>
<circle cx="1443.5" cy="342.5" r="27.5" fill="#714BED"/>
<circle cx="1565.5" cy="342.5" r="27.5" fill="#714BED"/>
<circle cx="1338.5" cy="342.5" r="27.5" fill="#714BED"/>
<circle cx="1670.5" cy="1602.5" r="27.5" fill="#714BED"/>
<circle cx="1443.5" cy="1602.5" r="27.5" fill="#714BED"/>
<circle cx="1565.5" cy="1602.5" r="27.5" fill="#714BED"/>
<circle cx="1338.5" cy="1602.5" r="27.5" fill="#714BED"/>
<circle cx="1670.5" cy="552.5" r="27.5" fill="#714BED"/>
<circle cx="1443.5" cy="552.5" r="27.5" fill="#714BED"/>
<circle cx="1565.5" cy="552.5" r="27.5" fill="#714BED"/>
<circle cx="1338.5" cy="552.5" r="27.5" fill="#714BED"/>
<circle cx="1670.5" cy="1812.5" r="27.5" fill="#714BED"/>
<circle cx="796.5" cy="1812.5" r="27.5" fill="#714BED"/>
<circle cx="1233.5" cy="1812.5" r="27.5" fill="#714BED"/>
<circle cx="359.5" cy="1812.5" r="27.5" fill="#714BED"/>
<circle cx="1443.5" cy="1812.5" r="27.5" fill="#714BED"/>
<circle cx="569.5" cy="1812.5" r="27.5" fill="#714BED"/>
<circle cx="1006.5" cy="1812.5" r="27.5" fill="#714BED"/>
<circle cx="132.5" cy="1812.5" r="27.5" fill="#714BED"/>
<circle cx="1565.5" cy="1812.5" r="27.5" fill="#714BED"/>
<circle cx="691.5" cy="1812.5" r="27.5" fill="#714BED"/>
<circle cx="1128.5" cy="1812.5" r="27.5" fill="#714BED"/>
<circle cx="254.5" cy="1812.5" r="27.5" fill="#714BED"/>
<circle cx="1338.5" cy="1812.5" r="27.5" fill="#714BED"/>
<circle cx="464.5" cy="1812.5" r="27.5" fill="#714BED"/>
<circle cx="901.5" cy="1812.5" r="27.5" fill="#714BED"/>
<path d="M55 1812.5C55 1827.69 42.6878 1840 27.5 1840C12.3122 1840 0 1827.69 0 1812.5C0 1797.31 12.3122 1785 27.5 1785C42.6878 1785 55 1797.31 55 1812.5Z" fill="#714BED"/>
<circle cx="1670.5" cy="762.5" r="27.5" fill="#714BED"/>
<circle cx="1443.5" cy="762.5" r="27.5" fill="#714BED"/>
<circle cx="1565.5" cy="762.5" r="27.5" fill="#714BED"/>
<circle cx="1338.5" cy="762.5" r="27.5" fill="#714BED"/>
<circle cx="1670.5" cy="2022.5" r="27.5" fill="#714BED"/>
<circle cx="796.5" cy="2022.5" r="27.5" fill="#714BED"/>
<circle cx="1233.5" cy="2022.5" r="27.5" fill="#714BED"/>
<circle cx="359.5" cy="2022.5" r="27.5" fill="#714BED"/>
<circle cx="1443.5" cy="2022.5" r="27.5" fill="#714BED"/>
<circle cx="569.5" cy="2022.5" r="27.5" fill="#714BED"/>
<circle cx="1006.5" cy="2022.5" r="27.5" fill="#714BED"/>
<circle cx="132.5" cy="2022.5" r="27.5" fill="#714BED"/>
<circle cx="1565.5" cy="2022.5" r="27.5" fill="#714BED"/>
<circle cx="691.5" cy="2022.5" r="27.5" fill="#714BED"/>
<circle cx="1128.5" cy="2022.5" r="27.5" fill="#714BED"/>
<circle cx="254.5" cy="2022.5" r="27.5" fill="#714BED"/>
<circle cx="1338.5" cy="2022.5" r="27.5" fill="#714BED"/>
<circle cx="464.5" cy="2022.5" r="27.5" fill="#714BED"/>
<circle cx="901.5" cy="2022.5" r="27.5" fill="#714BED"/>
<circle cx="27.5" cy="2022.5" r="27.5" fill="#714BED"/>
<circle cx="1670.5" cy="972.5" r="27.5" fill="#714BED"/>
<circle cx="1443.5" cy="972.5" r="27.5" fill="#714BED"/>
<circle cx="1565.5" cy="972.5" r="27.5" fill="#714BED"/>
<circle cx="1338.5" cy="972.5" r="27.5" fill="#714BED"/>
<circle cx="1670.5" cy="2232.5" r="27.5" fill="#714BED"/>
<circle cx="796.5" cy="2232.5" r="27.5" fill="#714BED"/>
<circle cx="1233.5" cy="2232.5" r="27.5" fill="#714BED"/>
<circle cx="359.5" cy="2232.5" r="27.5" fill="#714BED"/>
<circle cx="1443.5" cy="2232.5" r="27.5" fill="#714BED"/>
<circle cx="569.5" cy="2232.5" r="27.5" fill="#714BED"/>
<circle cx="1006.5" cy="2232.5" r="27.5" fill="#714BED"/>
<circle cx="132.5" cy="2232.5" r="27.5" fill="#714BED"/>
<circle cx="1565.5" cy="2232.5" r="27.5" fill="#714BED"/>
<circle cx="691.5" cy="2232.5" r="27.5" fill="#714BED"/>
<circle cx="1128.5" cy="2232.5" r="27.5" fill="#714BED"/>
<circle cx="254.5" cy="2232.5" r="27.5" fill="#714BED"/>
<circle cx="1338.5" cy="2232.5" r="27.5" fill="#714BED"/>
<circle cx="464.5" cy="2232.5" r="27.5" fill="#714BED"/>
<circle cx="901.5" cy="2232.5" r="27.5" fill="#714BED"/>
<circle cx="27.5" cy="2232.5" r="27.5" fill="#714BED"/>
<circle cx="1670.5" cy="1182.5" r="27.5" fill="#714BED"/>
<circle cx="1443.5" cy="1182.5" r="27.5" fill="#714BED"/>
<circle cx="1565.5" cy="1182.5" r="27.5" fill="#714BED"/>
<circle cx="1338.5" cy="1182.5" r="27.5" fill="#714BED"/>
<circle cx="1670.5" cy="2442.5" r="27.5" fill="#714BED"/>
<circle cx="796.5" cy="2442.5" r="27.5" fill="#714BED"/>
<circle cx="1233.5" cy="2442.5" r="27.5" fill="#714BED"/>
<circle cx="359.5" cy="2442.5" r="27.5" fill="#714BED"/>
<circle cx="1443.5" cy="2442.5" r="27.5" fill="#714BED"/>
<circle cx="569.5" cy="2442.5" r="27.5" fill="#714BED"/>
<circle cx="1006.5" cy="2442.5" r="27.5" fill="#714BED"/>
<circle cx="132.5" cy="2442.5" r="27.5" fill="#714BED"/>
<circle cx="1565.5" cy="2442.5" r="27.5" fill="#714BED"/>
<circle cx="691.5" cy="2442.5" r="27.5" fill="#714BED"/>
<circle cx="1128.5" cy="2442.5" r="27.5" fill="#714BED"/>
<circle cx="254.5" cy="2442.5" r="27.5" fill="#714BED"/>
<circle cx="1338.5" cy="2442.5" r="27.5" fill="#714BED"/>
<circle cx="464.5" cy="2442.5" r="27.5" fill="#714BED"/>
<circle cx="901.5" cy="2442.5" r="27.5" fill="#714BED"/>
<circle cx="27.5" cy="2442.5" r="27.5" fill="#714BED"/>
</svg>
