<svg width="8619" height="6691" viewBox="0 0 8619 6691" fill="none" xmlns="http://www.w3.org/2000/svg">
<g clip-path="url(#clip0_19_54)">
<rect width="8619" height="6691" fill="white"/>
<g filter="url(#filter0_d_19_54)">
<path d="M3173.5 658.382C3659 549 4249 1348 3520.22 1906.66C2791.45 2465.33 1213.71 1717.09 720 2746.5C66.7528 4108.54 3726 3907 3786.09 5104.76C3786.09 4974.2 4122.32 6835.17 1883.91 5865.07C-354.509 4894.98 -53.4756 5604.94 -53.4756 5604.94V324.389C-53.4756 324.389 -89.0261 44.7379 477.283 4.1799C1242.2 -50.6018 2123 895.058 3173.5 658.382Z" fill="#F9D36E"/>
<path d="M3173.5 658.382C3659 549 4249 1348 3520.22 1906.66C2791.45 2465.33 1213.71 1717.09 720 2746.5C66.7528 4108.54 3726 3907 3786.09 5104.76C3786.09 4974.2 4122.32 6835.17 1883.91 5865.07C-354.509 4894.98 -53.4756 5604.94 -53.4756 5604.94V324.389C-53.4756 324.389 -89.0261 44.7379 477.283 4.1799C1242.2 -50.6018 2123 895.058 3173.5 658.382Z" stroke="#F9D36E"/>
</g>
</g>
<defs>
<filter id="filter0_d_19_54" x="-71.5" y="1.38318" width="3938.17" height="6153.48" filterUnits="userSpaceOnUse" color-interpolation-filters="sRGB">
<feFlood flood-opacity="0" result="BackgroundImageFix"/>
<feColorMatrix in="SourceAlpha" type="matrix" values="0 0 0 0 0 0 0 0 0 0 0 0 0 0 0 0 0 0 127 0" result="hardAlpha"/>
<feOffset dy="4"/>
<feGaussianBlur stdDeviation="2"/>
<feComposite in2="hardAlpha" operator="out"/>
<feColorMatrix type="matrix" values="0 0 0 0 0 0 0 0 0 0 0 0 0 0 0 0 0 0 0.25 0"/>
<feBlend mode="normal" in2="BackgroundImageFix" result="effect1_dropShadow_19_54"/>
<feBlend mode="normal" in="SourceGraphic" in2="effect1_dropShadow_19_54" result="shape"/>
</filter>
<clipPath id="clip0_19_54">
<rect width="8619" height="6691" fill="white"/>
</clipPath>
</defs>
</svg>
